<?xml version="1.0" standalone="no"?>
<!DOCTYPE svg PUBLIC "-//W3C//DTD SVG 20010904//EN"
 "http://www.w3.org/TR/2001/REC-SVG-20010904/DTD/svg10.dtd">
<svg version="1.0" xmlns="http://www.w3.org/2000/svg"
 width="260.000000pt" height="260.000000pt" viewBox="0 0 260.000000 260.000000"
 preserveAspectRatio="xMidYMid meet">
<metadata>
Created by potrace 1.14, written by Peter Selinger 2001-2017
</metadata>
<g transform="translate(0.000000,260.000000) scale(0.100000,-0.100000)"
fill="#000000" stroke="none">
<path d="M3 1763 c4 -911 1 -872 62 -1044 108 -309 370 -561 695 -668 145 -48
201 -51 1048 -51 l792 0 0 778 c0 505 -4 808 -11 867 -51 413 -335 764 -726
895 -175 58 -209 60 -1076 60 l-788 0 4 -837z m899 28 l33 -29 5 -329 c5 -315
6 -330 27 -370 29 -53 84 -98 139 -112 26 -7 160 -11 344 -11 l302 0 34 -34
c28 -28 34 -42 34 -76 0 -35 -6 -48 -34 -76 l-35 -35 -348 3 c-334 3 -350 4
-403 25 -111 46 -207 142 -253 253 -21 53 -22 69 -25 403 l-3 348 35 35 c46
46 100 48 148 5z m816 14 c49 -21 81 -52 103 -100 48 -103 1 -226 -103 -270
-70 -29 -161 -13 -217 38 -76 70 -80 208 -8 286 52 56 151 76 225 46z"/>
</g>
</svg>
