<?xml version="1.0" standalone="no"?>
<!DOCTYPE svg PUBLIC "-//W3C//DTD SVG 20010904//EN"
 "http://www.w3.org/TR/2001/REC-SVG-20010904/DTD/svg10.dtd">
<svg version="1.0" xmlns="http://www.w3.org/2000/svg"
 width="260.000000pt" height="260.000000pt" viewBox="0 0 260.000000 260.000000"
 preserveAspectRatio="xMidYMid meet">
<metadata>
Created by potrace 1.14, written by Peter Selinger 2001-2017
</metadata>
<g transform="translate(0.000000,260.000000) scale(0.100000,-0.100000)"
fill="#000000" stroke="none">
<path d="M503 2526 c-195 -47 -363 -219 -403 -411 -7 -35 -10 -298 -8 -821 l3
-769 27 -62 c70 -165 206 -284 374 -328 49 -13 172 -15 809 -15 700 0 755 1
817 19 194 53 354 232 387 432 18 105 14 1422 -4 1523 -20 114 -64 197 -151
284 -78 79 -170 129 -272 151 -80 17 -1509 14 -1579 -3z m1042 -420 c274 -83
466 -283 536 -555 17 -68 19 -115 19 -528 l0 -454 -487 3 c-481 3 -489 4 -558
27 -270 90 -457 284 -530 551 -16 57 -19 123 -22 513 -3 246 -2 455 1 463 5
14 61 15 479 12 l472 -4 90 -28z"/>
<path d="M987 1678 c-31 -24 -37 -68 -37 -281 0 -201 1 -215 24 -262 28 -60
74 -107 132 -135 40 -18 63 -20 262 -20 254 0 252 -1 252 88 0 80 -6 82 -246
82 l-202 0 -32 26 c-57 48 -60 64 -60 279 0 182 -1 196 -20 215 -23 23 -49 26
-73 8z"/>
<path d="M1454 1665 c-57 -45 -80 -140 -47 -195 59 -101 210 -67 228 52 18
123 -94 212 -181 143z"/>
</g>
</svg>
